<svg id="Capa_1" enable-background="new 0 0 510.929 510.929" height="512" viewBox="0 0 510.929 510.929" width="512" xmlns="http://www.w3.org/2000/svg"><g><g><path d="m469.99 312.637c18.468 0 33.438 14.971 33.438 33.438v104.894c0 18.468-14.971 33.438-33.438 33.438h-429.052c-18.468 0-33.438-14.971-33.438-33.438v-104.894c0-18.468 14.971-33.438 33.438-33.438z" fill="#fbe88c"/><path d="m90.202 451.886c-18.468 0-33.438-14.971-33.438-33.438v-104.894c0-.308.015-.612.023-.917h-15.849c-18.468 0-33.438 14.971-33.438 33.438v104.894c0 18.468 14.971 33.438 33.438 33.438h429.052c18.16 0 32.936-14.487 33.423-32.529z" fill="#f9de58"/><g><circle cx="255.464" cy="305.382" fill="#81d9f8" r="43.194"/><path d="m237.083 302.163c0-17.536 10.452-32.63 25.464-39.397-2.307-.381-4.668-.578-7.083-.578-23.856 0-43.194 19.339-43.194 43.194 0 23.856 19.339 43.194 43.194 43.194 6.32 0 12.334-1.363 17.745-3.801-20.482-3.383-36.126-21.172-36.126-42.612z" fill="#5ccef6"/><path d="m50.413 144.511c7.206 5.653 17.584 4.806 23.707-2.004 44.674-49.689 109.423-80.985 181.344-80.985s136.67 31.296 181.344 80.985c6.123 6.811 16.502 7.658 23.707 2.004l.042-.033c7.978-6.259 8.939-17.949 2.155-25.485-51.081-56.741-125.07-92.472-207.248-92.472s-156.166 35.731-207.248 92.472c-6.784 7.536-5.823 19.226 2.155 25.485z" fill="#cfeffc"/><path d="m105.629 187.83c7.143 5.604 17.331 4.745 23.571-1.85 31.713-33.518 76.589-54.459 126.264-54.459s94.551 20.941 126.264 54.459c6.24 6.595 16.428 7.454 23.571 1.85l.042-.033c8.042-6.309 9.028-18.199 2.013-25.634-38.109-40.393-92.106-65.642-151.89-65.642s-113.781 25.248-151.89 65.642c-7.014 7.435-6.029 19.325 2.013 25.634z" fill="#a9e4f9"/><path d="m161.006 231.275c6.871 5.391 16.604 4.811 22.936-1.204 18.624-17.693 43.805-28.551 71.522-28.551s52.898 10.857 71.522 28.551c6.332 6.015 16.065 6.594 22.936 1.204 8.375-6.57 8.98-19.046 1.274-26.39-24.93-23.759-58.658-38.364-95.732-38.364s-70.803 14.605-95.732 38.364c-7.706 7.344-7.101 19.82 1.274 26.39z" fill="#81d9f8"/><circle cx="56.764" cy="405.559" fill="#f8f7f8" r="17.763"/><path d="m56.764 423.322c.12 0 .236-.016.355-.018-.231-1.586-.355-3.206-.355-4.856v-30.653c-9.81 0-17.763 7.953-17.763 17.763 0 9.811 7.952 17.764 17.763 17.764z" fill="#efedee"/><circle cx="454.165" cy="405.559" fill="#f8f7f8" r="17.763"/></g></g><g><path d="m306.159 305.381c0-27.953-22.741-50.694-50.694-50.694s-50.694 22.741-50.694 50.694 22.741 50.694 50.694 50.694 50.694-22.741 50.694-50.694zm-86.389 0c0-19.682 16.012-35.694 35.694-35.694s35.694 16.012 35.694 35.694-16.012 35.694-35.694 35.694-35.694-16.012-35.694-35.694z"/><path d="m133.654 145.164c3.294-2.511 3.929-7.217 1.418-10.511s-7.217-3.93-10.511-1.418c-9.462 7.212-18.358 15.213-26.442 23.782-4.758 5.043-7.188 11.916-6.67 18.855.523 6.998 3.99 13.496 9.551 17.859 4.563 3.58 9.978 5.336 15.372 5.336 6.672 0 13.313-2.686 18.276-7.932 31.796-33.606 74.703-52.114 120.816-52.114s89.02 18.508 120.816 52.114c8.976 9.486 23.441 10.603 33.69 2.563 5.52-4.331 8.986-10.828 9.51-17.826.519-6.94-1.912-13.812-6.67-18.856-20.034-21.234-43.667-37.95-70.243-49.683-27.525-12.151-56.831-18.312-87.102-18.312-35.965 0-71.62 9.06-103.108 26.2-3.638 1.98-4.982 6.535-3.002 10.173s6.533 4.981 10.173 3.002c29.295-15.946 62.469-24.375 95.937-24.375 28.172 0 55.439 5.731 81.044 17.035 24.736 10.92 46.737 26.482 65.39 46.253 1.9 2.014 2.831 4.657 2.623 7.444-.213 2.846-1.566 5.383-3.852 7.176-4.074 3.195-9.875 2.722-13.494-1.104-16.787-17.742-36.577-31.708-58.82-41.507-23.039-10.15-47.563-15.297-72.892-15.297s-49.853 5.146-72.892 15.297c-22.243 9.8-42.033 23.765-58.82 41.507-3.619 3.826-9.42 4.3-13.536 1.071-2.244-1.76-3.597-4.297-3.81-7.143-.208-2.787.723-5.43 2.622-7.443 7.527-7.977 15.812-15.428 24.626-22.146z"/><path d="m354.552 237.176c5.708-4.478 9.181-11.203 9.53-18.45.348-7.244-2.462-14.268-7.71-19.271-27.36-26.075-63.196-40.435-100.907-40.435s-73.547 14.36-100.907 40.435c-5.249 5.002-8.059 12.026-7.71 19.271.349 7.247 3.822 13.972 9.53 18.45 4.561 3.578 9.967 5.345 15.367 5.345 6.239 0 12.467-2.36 17.364-7.012 17.98-17.081 41.546-26.488 66.357-26.488s48.377 9.407 66.357 26.488c9.133 8.679 22.899 9.379 32.729 1.667zm-175.776-12.542c-3.691 3.507-9.218 3.818-13.141.741-2.313-1.814-3.665-4.432-3.806-7.369-.141-2.935.951-5.666 3.076-7.691 24.557-23.404 56.718-36.293 90.558-36.293s66.001 12.889 90.558 36.293c2.125 2.025 3.217 4.757 3.076 7.691-.141 2.938-1.493 5.555-3.806 7.369-3.923 3.077-9.45 2.766-13.141-.741-20.78-19.741-48.015-30.613-76.688-30.613s-55.906 10.872-76.686 30.613z"/><path d="m419.55 312.637c0-4.142-3.358-7.5-7.5-7.5h-83.753c-4.142 0-7.5 3.358-7.5 7.5s3.358 7.5 7.5 7.5h83.753c4.142 0 7.5-3.358 7.5-7.5z"/><path d="m469.99 305.137h-25.978c-4.142 0-7.5 3.358-7.5 7.5s3.358 7.5 7.5 7.5h25.978c14.303 0 25.938 11.636 25.938 25.938v104.894c0 14.303-11.636 25.938-25.938 25.938h-429.052c-14.302.001-25.938-11.635-25.938-25.938v-104.894c0-14.302 11.636-25.938 25.938-25.938h141.693c4.142 0 7.5-3.358 7.5-7.5s-3.358-7.5-7.5-7.5h-141.693c-22.573 0-40.938 18.364-40.938 40.938v104.894c0 22.574 18.365 40.938 40.938 40.938h429.052c22.574 0 40.938-18.365 40.938-40.938v-104.894c.001-22.574-18.364-40.938-40.938-40.938z"/><path d="m167.737 381.001c4.142 0 7.5-3.358 7.5-7.5s-3.358-7.5-7.5-7.5h-26.488c-4.142 0-7.5 3.358-7.5 7.5v65.354c0 4.142 3.358 7.5 7.5 7.5s7.5-3.358 7.5-7.5v-25.796h16.884c4.142 0 7.5-3.358 7.5-7.5s-3.358-7.5-7.5-7.5h-16.884v-17.058z"/><path d="m300.739 380.441c4.142 0 7.5-3.358 7.5-7.5s-3.358-7.5-7.5-7.5h-27.487c-4.142 0-7.5 3.358-7.5 7.5v65.235c0 4.142 3.358 7.5 7.5 7.5h27.487c4.142 0 7.5-3.358 7.5-7.5s-3.358-7.5-7.5-7.5h-19.987v-17.617h17.96c4.142 0 7.5-3.358 7.5-7.5s-3.358-7.5-7.5-7.5h-17.96v-17.618z"/><path d="m369.68 380.441c4.142 0 7.5-3.358 7.5-7.5s-3.358-7.5-7.5-7.5h-27.487c-4.142 0-7.5 3.358-7.5 7.5v65.235c0 4.142 3.358 7.5 7.5 7.5h27.487c4.142 0 7.5-3.358 7.5-7.5s-3.358-7.5-7.5-7.5h-19.987v-17.617h17.96c4.142 0 7.5-3.358 7.5-7.5s-3.358-7.5-7.5-7.5h-17.96v-17.618z"/><path d="m241.052 390.429c0-13.57-11.475-24.61-25.579-24.61h-17.495c-.004 0-.007.001-.011.001s-.007-.001-.011-.001c-4.142 0-7.5 3.358-7.5 7.5v65.836c0 4.142 3.358 7.5 7.5 7.5s7.5-3.358 7.5-7.5v-20.57l22.465 25.525c1.482 1.685 3.552 2.545 5.633 2.545 1.76 0 3.527-.616 4.952-1.87 3.109-2.736 3.412-7.476.675-10.585l-17.51-19.895c11.119-2.673 19.381-12.362 19.381-23.876zm-25.578 9.611c-2.301 0-6.319.017-9.916.035-.019-3.519-.036-7.42-.036-9.645 0-1.886-.01-5.926-.021-9.61h9.972c5.734 0 10.579 4.401 10.579 9.61s-4.844 9.61-10.578 9.61z"/><path d="m31.5 405.559c0 13.931 11.333 25.264 25.264 25.264 13.93 0 25.263-11.333 25.263-25.264 0-13.93-11.333-25.263-25.263-25.263-13.931-.001-25.264 11.332-25.264 25.263zm35.527 0c0 5.659-4.604 10.264-10.263 10.264s-10.264-4.605-10.264-10.264 4.604-10.263 10.264-10.263 10.263 4.603 10.263 10.263z"/><path d="m454.165 430.822c13.931 0 25.264-11.333 25.264-25.264 0-13.93-11.333-25.263-25.264-25.263-13.93 0-25.263 11.333-25.263 25.263-.001 13.931 11.332 25.264 25.263 25.264zm0-35.527c5.659 0 10.264 4.604 10.264 10.263s-4.604 10.264-10.264 10.264-10.263-4.604-10.263-10.264 4.603-10.263 10.263-10.263z"/><path d="m45.784 150.412c4.548 3.568 9.992 5.312 15.407 5.312 6.844 0 13.639-2.788 18.507-8.203 44.853-49.887 108.917-78.5 175.767-78.5s130.914 28.612 175.767 78.5c8.72 9.699 23.617 10.97 33.956 2.858 5.414-4.248 8.859-10.616 9.452-17.472.596-6.886-1.72-13.786-6.352-18.932-8.769-9.74-18.378-19.029-28.562-27.61-3.168-2.669-7.899-2.265-10.568.903-2.669 3.167-2.265 7.899.902 10.568 9.659 8.139 18.77 16.946 27.08 26.176 1.891 2.1 2.798 4.8 2.556 7.603-.24 2.773-1.578 5.246-3.809 6.996-4.108 3.225-10.038 2.732-13.5-1.118-47.693-53.047-115.823-83.471-186.921-83.471s-139.23 30.423-186.923 83.47c-3.462 3.85-9.393 4.34-13.542 1.084-2.189-1.717-3.527-4.19-3.767-6.963-.243-2.802.665-5.502 2.556-7.603 25.236-28.032 55.348-50.14 89.5-65.708 35.346-16.112 73.087-24.282 112.174-24.282 53.459 0 105.223 15.608 149.696 45.136 3.449 2.292 8.105 1.352 10.396-2.1 2.292-3.451 1.351-8.105-2.1-10.396-46.939-31.167-101.573-47.64-157.993-47.64-41.249 0-81.083 8.625-118.396 25.634-36.036 16.427-67.805 39.75-94.426 69.32-4.633 5.146-6.948 12.046-6.353 18.932.595 6.857 4.04 13.225 9.496 17.506z"/></g></g></svg>